<?xml version="1.0" encoding="UTF-8"?>
<svg version="1.1" xmlns="http://www.w3.org/2000/svg" width="92" height="96">
<path d="M0 0 C30.36 0 60.72 0 92 0 C92 31.68 92 63.36 92 96 C61.64 96 31.28 96 0 96 C0 64.32 0 32.64 0 0 Z " fill="#F8F4EC" transform="translate(0,0)"/>
<path d="M0 0 C4.28364261 0.47596029 6.26023924 2.83873758 9 6 C12.89518892 11.50699123 12.87385525 17.50733718 12 24 C10.27574909 29.13017862 8.20007497 32.9786596 4.0625 36.5 C1.73018654 38.74905076 1.73018654 38.74905076 2.1328125 41.23828125 C2.50828706 42.98080053 2.92100105 44.7156391 3.3671875 46.44140625 C4.57241004 51.31437391 4.53774359 55.44651853 2.875 60.25 C0.38941603 63.89552316 -2.4497296 66.51475819 -6.93093872 67.36740112 C-9.13198372 67.51039448 -11.29847177 67.52857907 -13.50390625 67.49609375 C-14.70526466 67.4982766 -14.70526466 67.4982766 -15.93089294 67.50050354 C-17.61599382 67.49885073 -19.30111075 67.48735886 -20.98608398 67.46655273 C-23.55843438 67.43754585 -26.12872742 67.44596618 -28.70117188 67.45898438 C-30.34375996 67.45274755 -31.98634158 67.44435704 -33.62890625 67.43359375 C-34.39360733 67.43652939 -35.15830841 67.43946503 -35.94618225 67.44248962 C-40.46973039 67.36291187 -43.35380174 66.71674869 -47 64 C-46.67 62.35 -46.34 60.7 -46 59 C-40.06 59.66 -34.12 60.32 -28 61 C-28.804375 59.246875 -29.60875 57.49375 -30.4375 55.6875 C-32.78803599 50.56453696 -34.05470336 46.70517793 -34.25 41.0625 C-34.49779187 36.20015269 -34.49779187 36.20015269 -37.5 32.5 C-38.325 32.005 -39.15 31.51 -40 31 C-40.6875 28.8125 -40.6875 28.8125 -41 27 C-41.66 26.67 -42.32 26.34 -43 26 C-42.34 26 -41.68 26 -41 26 C-40.34 20.39 -39.68 14.78 -39 9 C-35 11 -35 11 -33.52734375 12.59765625 C-30.99442609 14.9232763 -28.44633443 14.46189153 -25.15625 14.37109375 C-22.12193484 13.84888371 -20.85450073 12.37376093 -19 10 C-18.34 10 -17.68 10 -17 10 C-16.93941406 10.78503906 -16.87882812 11.57007813 -16.81640625 12.37890625 C-16.64350779 14.54678697 -16.45539907 16.71349605 -16.25390625 18.87890625 C-16 22 -16 22 -16 26 C-14.81117742 29.56646774 -14.13134622 29.86630766 -10.875 31.5 C-6.52966182 33.07259858 -3.44000057 33.70769253 1 32 C5.26548883 28.01527752 6.34942244 23.57837607 6.5625 17.875 C6.29968973 11.74533702 4.39037432 8.56111534 0.25 4.125 C-0.1625 3.75375 -0.575 3.3825 -1 3 C-0.67 2.01 -0.34 1.02 0 0 Z " fill="#141412" transform="translate(63,12)"/>
<path d="M0 0 C1.485 0.99 1.485 0.99 3 2 C5.33675726 3.27906713 7.6860338 4.53239334 10.0390625 5.78125 C12 7 12 7 13 9 C8.04378488 8.50437849 4.29718625 7.55784896 0 5 C-0.33 4.34 -0.66 3.68 -1 3 C-0.67 2.01 -0.34 1.02 0 0 Z " fill="#D4D3CD" transform="translate(48,37)"/>
<path d="M0 0 C1.65 0.33 3.3 0.66 5 1 C4.01 1.33 3.02 1.66 2 2 C2 2.66 2 3.32 2 4 C2.66 4 3.32 4 4 4 C3.67 4.99 3.34 5.98 3 7 C1.68 6.34 0.36 5.68 -1 5 C-0.67 3.35 -0.34 1.7 0 0 Z " fill="#1C1D19" transform="translate(17,71)"/>
<path d="M0 0 C0.66 0 1.32 0 2 0 C2 4.62 2 9.24 2 14 C1.67 14 1.34 14 1 14 C1 10.7 1 7.4 1 4 C0.01 4 -0.98 4 -2 4 C-1.34 2.68 -0.68 1.36 0 0 Z " fill="#060503" transform="translate(44,22)"/>
<path d="M0 0 C-3.00617269 3.00617269 -5.82381598 2.59585316 -10 3 C-8.0130571 -0.97388579 -3.91761109 -0.08705802 0 0 Z " fill="#DAD5CA" transform="translate(22,37)"/>
</svg>
